<mxfile host="app.diagrams.net" modified="2023-01-29T06:47:36.963Z" agent="5.0 (Windows NT 10.0; Win64; x64) AppleWebKit/537.36 (KHTML, like Gecko) Chrome/109.0.0.0 Safari/537.36" etag="kogytOpi0S-cgwhP4X4Y" version="20.8.13" type="github">
  <diagram id="C5RBs43oDa-KdzZeNtuy" name="Page-1">
    <mxGraphModel dx="1434" dy="764" grid="1" gridSize="10" guides="1" tooltips="1" connect="1" arrows="1" fold="1" page="1" pageScale="1" pageWidth="827" pageHeight="1169" math="0" shadow="0">
      <root>
        <mxCell id="WIyWlLk6GJQsqaUBKTNV-0" />
        <mxCell id="WIyWlLk6GJQsqaUBKTNV-1" parent="WIyWlLk6GJQsqaUBKTNV-0" />
        <mxCell id="tXyCLjno2CrrBulp7vzh-0" value="" style="rounded=0;html=1;jettySize=auto;orthogonalLoop=1;fontSize=11;endArrow=block;endFill=0;endSize=8;strokeWidth=1;shadow=0;labelBackgroundColor=none;edgeStyle=orthogonalEdgeStyle;" edge="1" parent="WIyWlLk6GJQsqaUBKTNV-1" source="tXyCLjno2CrrBulp7vzh-2">
          <mxGeometry relative="1" as="geometry">
            <mxPoint x="380" y="170" as="targetPoint" />
          </mxGeometry>
        </mxCell>
        <mxCell id="tXyCLjno2CrrBulp7vzh-1" value="" style="edgeStyle=orthogonalEdgeStyle;rounded=0;orthogonalLoop=1;jettySize=auto;html=1;" edge="1" parent="WIyWlLk6GJQsqaUBKTNV-1" source="tXyCLjno2CrrBulp7vzh-2" target="tXyCLjno2CrrBulp7vzh-4">
          <mxGeometry relative="1" as="geometry" />
        </mxCell>
        <mxCell id="tXyCLjno2CrrBulp7vzh-2" value="获取得到系统盘，线程锁" style="rounded=1;whiteSpace=wrap;html=1;fontSize=12;glass=0;strokeWidth=1;shadow=0;" vertex="1" parent="WIyWlLk6GJQsqaUBKTNV-1">
          <mxGeometry x="320" y="80" width="120" height="40" as="geometry" />
        </mxCell>
        <mxCell id="tXyCLjno2CrrBulp7vzh-3" value="" style="edgeStyle=orthogonalEdgeStyle;rounded=0;orthogonalLoop=1;jettySize=auto;html=1;" edge="1" parent="WIyWlLk6GJQsqaUBKTNV-1" source="tXyCLjno2CrrBulp7vzh-4" target="tXyCLjno2CrrBulp7vzh-6">
          <mxGeometry relative="1" as="geometry" />
        </mxCell>
        <mxCell id="tXyCLjno2CrrBulp7vzh-4" value="根据传递条件筛选出磁盘放到队列中去" style="whiteSpace=wrap;html=1;rounded=1;glass=0;strokeWidth=1;shadow=0;" vertex="1" parent="WIyWlLk6GJQsqaUBKTNV-1">
          <mxGeometry x="320" y="190" width="120" height="60" as="geometry" />
        </mxCell>
        <mxCell id="tXyCLjno2CrrBulp7vzh-5" value="" style="edgeStyle=orthogonalEdgeStyle;rounded=0;orthogonalLoop=1;jettySize=auto;html=1;" edge="1" parent="WIyWlLk6GJQsqaUBKTNV-1" source="tXyCLjno2CrrBulp7vzh-6" target="tXyCLjno2CrrBulp7vzh-7">
          <mxGeometry relative="1" as="geometry" />
        </mxCell>
        <mxCell id="tXyCLjno2CrrBulp7vzh-6" value="调用clear_disk函数，先去清理集群相关的信息，并且把踢走的osd放到全局变量self.osds中，再去清理磁盘级别的信息，并且记录清理磁盘的uuid 到self.cache_uuids中" style="whiteSpace=wrap;html=1;rounded=1;glass=0;strokeWidth=1;shadow=0;" vertex="1" parent="WIyWlLk6GJQsqaUBKTNV-1">
          <mxGeometry x="305" y="320" width="150" height="100" as="geometry" />
        </mxCell>
        <mxCell id="tXyCLjno2CrrBulp7vzh-9" value="" style="edgeStyle=orthogonalEdgeStyle;rounded=0;orthogonalLoop=1;jettySize=auto;html=1;" edge="1" parent="WIyWlLk6GJQsqaUBKTNV-1" source="tXyCLjno2CrrBulp7vzh-7" target="tXyCLjno2CrrBulp7vzh-8">
          <mxGeometry relative="1" as="geometry" />
        </mxCell>
        <mxCell id="tXyCLjno2CrrBulp7vzh-7" value="根据self.osds信息清理掉集群配置信息" style="whiteSpace=wrap;html=1;rounded=1;glass=0;strokeWidth=1;shadow=0;" vertex="1" parent="WIyWlLk6GJQsqaUBKTNV-1">
          <mxGeometry x="320" y="470" width="120" height="60" as="geometry" />
        </mxCell>
        <mxCell id="tXyCLjno2CrrBulp7vzh-8" value="根据self.cache_uuids清理磁盘cache信息" style="whiteSpace=wrap;html=1;rounded=1;glass=0;strokeWidth=1;shadow=0;" vertex="1" parent="WIyWlLk6GJQsqaUBKTNV-1">
          <mxGeometry x="320" y="610" width="120" height="60" as="geometry" />
        </mxCell>
      </root>
    </mxGraphModel>
  </diagram>
</mxfile>
